<svg xmlns="http://www.w3.org/2000/svg" viewBox="0 0 1200 750" role="img" aria-labelledby="title desc">
  <title id="title">Parish BBQ</title>
  <desc id="desc">Illustrated barbecue grill and plate for a Knights of Columbus parish BBQ event.</desc>
  <rect width="1200" height="750" fill="#0f2f66"/>
  <circle cx="950" cy="130" r="220" fill="#f4c430" opacity="0.18"/>
  <circle cx="160" cy="650" r="260" fill="#ffffff" opacity="0.06"/>
  <g transform="translate(360 210)">
    <rect x="0" y="120" width="480" height="210" rx="42" fill="#182235"/>
    <rect x="45" y="155" width="390" height="90" rx="24" fill="#ef6c35"/>
    <path d="M90 165c35 45 70 45 105 0 35 45 70 45 105 0 35 45 70 45 105 0" fill="none" stroke="#ffd166" stroke-width="18" stroke-linecap="round"/>
    <rect x="95" y="330" width="26" height="150" rx="13" fill="#d8dee9"/>
    <rect x="359" y="330" width="26" height="150" rx="13" fill="#d8dee9"/>
    <circle cx="108" cy="500" r="30" fill="#101826"/>
    <circle cx="372" cy="500" r="30" fill="#101826"/>
    <path d="M95 100c-40-65 45-85 5-150M220 100c-40-65 45-85 5-150M345 100c-40-65 45-85 5-150" fill="none" stroke="#ffffff" stroke-width="18" stroke-linecap="round" opacity="0.7"/>
  </g>
  <text x="600" y="115" text-anchor="middle" fill="#ffffff" font-family="Arial, Helvetica, sans-serif" font-size="58" font-weight="800">COUNCIL 12906</text>
  <text x="600" y="680" text-anchor="middle" fill="#f4c430" font-family="Arial, Helvetica, sans-serif" font-size="72" font-weight="900">PARISH BBQ</text>
</svg>
