<svg xmlns="http://www.w3.org/2000/svg" viewBox="0 0 1200 750" role="img" aria-labelledby="title desc">
  <title id="title">Parish Fish Fry</title>
  <desc id="desc">Illustrated fish and plate for a Knights of Columbus parish fish fry event.</desc>
  <rect width="1200" height="750" fill="#123d72"/>
  <circle cx="160" cy="130" r="220" fill="#f4c430" opacity="0.16"/>
  <circle cx="1040" cy="650" r="260" fill="#ffffff" opacity="0.06"/>
  <ellipse cx="600" cy="410" rx="330" ry="170" fill="#f7f3e8"/>
  <ellipse cx="600" cy="430" rx="275" ry="115" fill="#d7e6f4"/>
  <g transform="translate(350 280)">
    <path d="M110 125c95-105 285-105 390 0-105 105-295 105-390 0Z" fill="#f2a33b"/>
    <path d="M110 125 15 55v140Z" fill="#e98a24"/>
    <circle cx="430" cy="105" r="13" fill="#172033"/>
    <path d="M205 85c60 38 120 38 180 0M205 125c60 38 120 38 180 0M205 165c60 38 120 38 180 0" fill="none" stroke="#ffd98a" stroke-width="12" stroke-linecap="round"/>
  </g>
  <path d="M390 520c80 35 340 35 420 0" fill="none" stroke="#ffffff" stroke-width="16" stroke-linecap="round" opacity="0.75"/>
  <text x="600" y="115" text-anchor="middle" fill="#ffffff" font-family="Arial, Helvetica, sans-serif" font-size="58" font-weight="800">COUNCIL 12906</text>
  <text x="600" y="680" text-anchor="middle" fill="#f4c430" font-family="Arial, Helvetica, sans-serif" font-size="72" font-weight="900">FISH FRIES</text>
</svg>
